<svg width="823" height="212" viewBox="0 0 823 212" fill="none" xmlns="http://www.w3.org/2000/svg">
<path d="M432.736 20.0578C423.606 13.3718 414.476 8.3574 403.686 5.01444C393.726 1.67148 382.937 0 372.147 0C358.867 0 345.587 2.50722 333.137 7.52166C320.687 12.5361 309.898 20.0578 299.938 30.0866C289.978 40.1155 282.508 50.9801 277.528 63.5162C272.548 76.0523 270.058 90.2599 270.058 105.303C270.058 120.347 272.548 133.718 277.528 147.09C282.508 159.626 289.978 171.327 299.938 181.356C309.898 191.384 320.687 198.906 333.137 203.92C345.587 208.935 358.867 211.442 372.147 211.442C386.257 211.442 398.706 208.935 411.156 203.92C423.606 198.906 434.396 191.384 444.356 181.356C454.316 171.327 461.786 160.462 466.766 147.926C471.745 135.39 474.235 121.182 474.235 106.139C474.235 88.5884 470.915 72.7094 463.446 57.666C455.976 42.6227 446.016 30.0866 432.736 20.0578ZM416.966 172.162C405.346 188.877 390.407 198.07 372.147 198.07C353.887 198.07 338.947 189.713 327.327 172.162C315.708 155.448 309.898 132.883 309.898 105.303C309.898 77.7238 315.708 55.1588 327.327 38.444C338.947 21.7292 353.887 12.5361 372.147 12.5361C390.407 12.5361 405.346 20.8935 416.966 38.444C428.586 55.1588 434.396 77.7238 434.396 105.303C434.396 132.883 428.586 155.448 416.966 172.162Z" fill="#15223D"/>
<path d="M175.441 142.075L122.322 5.01367H83.3122L115.682 85.2447L93.2721 143.746L39.3228 5.01367H0.313354L83.3122 210.606L123.982 103.631L166.311 210.606L245.16 5.01367H226.07L175.441 142.075Z" fill="#15223D"/>
<path d="M673.434 142.075L619.484 5.01367H581.305L613.675 85.2447L591.265 143.746L537.316 5.01367H498.306L581.305 210.606L621.145 103.631L663.474 210.606L743.153 5.01367H724.063L673.434 142.075Z" fill="#15223D"/>
<path fill-rule="evenodd" clip-rule="evenodd" d="M801.25 165.476L789.63 38.444C789.215 36.7725 789.008 35.1011 788.8 33.4296C788.593 31.7581 788.386 30.0866 787.971 28.4151V20.8935C787.971 14.2076 789.63 8.35739 792.12 5.01444C794.61 1.67148 798.76 0 804.57 0C810.38 0 813.7 2.50722 817.02 5.85018C819.51 9.19313 821.17 14.2076 821.17 20.8935C821.17 21.5411 821.046 22.3141 820.893 23.2611C820.652 24.7586 820.34 26.6911 820.34 29.2509C820.34 31.0424 820.102 32.8338 819.881 34.4967C819.689 35.9368 819.51 37.2804 819.51 38.444L807.89 165.476H801.25ZM805.4 175.51C810.38 175.51 814.53 177.181 817.85 180.524C821.17 183.867 822.83 188.046 822.83 193.06C822.83 198.075 821.17 202.253 817.85 205.596C814.53 208.939 810.38 210.611 805.4 210.611C800.421 210.611 796.271 208.939 792.951 205.596C789.631 202.253 787.971 198.075 787.971 193.06C787.971 188.046 789.631 183.867 792.951 180.524C796.271 177.181 800.421 175.51 805.4 175.51Z" fill="#15223D"/>
</svg>
