<svg width="231" height="50" viewBox="0 0 231 50" fill="none" xmlns="http://www.w3.org/2000/svg">
<path fill-rule="evenodd" clip-rule="evenodd" d="M17.3807 16.7479L4.65108 16.7479L4.65108 3.34934L29.1312 3.34934L29.1312 -0.000306431L0.407861 -0.000305176L0.407861 40.1954L16.4015 40.1954C21.2975 40.1954 24.888 39.1905 27.4992 37.1807C30.1104 35.171 31.416 32.1563 31.416 28.1367C31.416 24.4521 30.1104 21.4374 27.8256 19.7626C25.5408 17.7528 21.9503 16.7479 17.3807 16.7479ZM24.5616 34.501C22.6032 35.8409 19.9919 36.5108 16.4015 36.5108L4.65108 36.5108L4.65108 19.7626L16.4015 19.7626C19.9919 19.7626 22.9296 20.4325 24.5616 21.7724C26.52 23.1122 27.1728 25.122 27.1728 27.8017C27.4992 31.1514 26.52 33.1612 24.5616 34.501ZM64.146 27.2263L49.934 -0.000303526L45.1966 -0.000303319L61.7774 31.2599L60.7622 33.2767C59.0703 36.3019 56.7016 37.6464 54.3329 37.6464C53.3178 37.6464 51.9643 37.3103 50.6107 36.9742L49.2572 40.3355C50.9491 41.0077 52.641 41.3439 54.3329 41.3439C56.3632 41.3439 58.3935 40.6716 60.0854 39.6632C61.7774 38.6548 63.4693 36.638 64.8228 34.2851L83.0954 -0.000304975L78.6965 -0.000304783L64.146 27.2263ZM103.876 -0.000305884L129.836 -0.000307019L130.157 -0.000307033L130.157 36.6173L135.925 36.6173L135.925 49.383L132.08 49.383L132.08 40.3126L98.4273 40.3126L98.4273 49.383L94.5813 49.383L94.5813 36.6173L96.5043 36.6173C98.7478 36.2813 100.671 34.2657 101.632 30.2344C102.594 26.2031 103.235 20.4921 103.555 13.1014L103.876 -0.000305884ZM102.273 36.6173L125.99 36.6173L125.99 3.69504L107.401 3.69504L107.081 13.4373C107.081 19.4843 106.44 24.5234 105.799 28.5547C105.158 32.586 103.876 35.2735 102.273 36.6173ZM159.84 21.4374L180.782 21.4374L180.782 17.7528L159.84 17.7528L159.84 3.6843L183.484 3.6843L183.484 -0.000305549L155.449 -0.000304323L155.449 40.1954L184.16 40.1954L184.16 36.5108L159.84 36.5108L159.84 21.4374ZM212.515 3.6843L199.089 3.6843L199.089 -0.000306231L230.097 -0.000307586L230.097 3.6843L216.351 3.6843L216.351 40.1954L212.515 40.1954L212.515 3.6843Z" fill="#15223D"/>
</svg>
