<svg width="78" height="91" viewBox="0 0 78 91" fill="none" xmlns="http://www.w3.org/2000/svg">
<rect width="78" height="78" rx="39" transform="matrix(-1 0 0 1 78 3)" fill="url(#paint0_linear_1890_2169)" fill-opacity="0.45"/>
<g filter="url(#filter0_d_1890_2169)">
<rect width="58" height="58" rx="29" transform="matrix(-1 0 0 1 68 13)" fill="url(#paint1_linear_1890_2169)" shape-rendering="crispEdges"/>
<path d="M48.8536 41.6464C49.0488 41.8417 49.0488 42.1583 48.8536 42.3536L45.6716 45.5355C45.4763 45.7308 45.1597 45.7308 44.9645 45.5355C44.7692 45.3403 44.7692 45.0237 44.9645 44.8284L47.7929 42L44.9645 39.1716C44.7692 38.9763 44.7692 38.6597 44.9645 38.4645C45.1597 38.2692 45.4763 38.2692 45.6716 38.4645L48.8536 41.6464ZM29.5 41.5L48.5 41.5L48.5 42.5L29.5 42.5L29.5 41.5Z" fill="#15223D"/>
<g filter="url(#filter1_f_1890_2169)">
<rect width="24" height="17" rx="8.5" transform="matrix(-1 0 0 1 51 17)" fill="white"/>
</g>
<g filter="url(#filter2_f_1890_2169)">
<rect width="26" height="16" rx="8" transform="matrix(-1 0 0 1 52 51)" fill="#E3E5F4"/>
</g>
<rect x="-0.5" y="0.5" width="57" height="57" rx="28.5" transform="matrix(-1 0 0 1 67 13)" stroke="url(#paint2_linear_1890_2169)" style="mix-blend-mode:overlay" shape-rendering="crispEdges"/>
</g>
<defs>
<filter id="filter0_d_1890_2169" x="2" y="6" width="74" height="74" filterUnits="userSpaceOnUse" color-interpolation-filters="sRGB">
<feFlood flood-opacity="0" result="BackgroundImageFix"/>
<feColorMatrix in="SourceAlpha" type="matrix" values="0 0 0 0 0 0 0 0 0 0 0 0 0 0 0 0 0 0 127 0" result="hardAlpha"/>
<feOffset dy="1"/>
<feGaussianBlur stdDeviation="4"/>
<feComposite in2="hardAlpha" operator="out"/>
<feColorMatrix type="matrix" values="0 0 0 0 0.72549 0 0 0 0 0.72549 0 0 0 0 0.827451 0 0 0 0.41 0"/>
<feBlend mode="normal" in2="BackgroundImageFix" result="effect1_dropShadow_1890_2169"/>
<feBlend mode="normal" in="SourceGraphic" in2="effect1_dropShadow_1890_2169" result="shape"/>
</filter>
<filter id="filter1_f_1890_2169" x="10" y="0" width="58" height="51" filterUnits="userSpaceOnUse" color-interpolation-filters="sRGB">
<feFlood flood-opacity="0" result="BackgroundImageFix"/>
<feBlend mode="normal" in="SourceGraphic" in2="BackgroundImageFix" result="shape"/>
<feGaussianBlur stdDeviation="8.5" result="effect1_foregroundBlur_1890_2169"/>
</filter>
<filter id="filter2_f_1890_2169" x="2" y="27" width="74" height="64" filterUnits="userSpaceOnUse" color-interpolation-filters="sRGB">
<feFlood flood-opacity="0" result="BackgroundImageFix"/>
<feBlend mode="normal" in="SourceGraphic" in2="BackgroundImageFix" result="shape"/>
<feGaussianBlur stdDeviation="12" result="effect1_foregroundBlur_1890_2169"/>
</filter>
<linearGradient id="paint0_linear_1890_2169" x1="37.8026" y1="0" x2="37.8026" y2="78" gradientUnits="userSpaceOnUse">
<stop stop-color="#E1E4F7"/>
<stop offset="1" stop-color="#F7F8FF"/>
</linearGradient>
<linearGradient id="paint1_linear_1890_2169" x1="16.0263" y1="-3.37921e-06" x2="59.689" y2="4.26633" gradientUnits="userSpaceOnUse">
<stop stop-color="#F3F5FF"/>
<stop offset="1" stop-color="white"/>
</linearGradient>
<linearGradient id="paint2_linear_1890_2169" x1="28.7456" y1="-0.499987" x2="57.6974" y2="38.6681" gradientUnits="userSpaceOnUse">
<stop stop-color="white"/>
<stop offset="1"/>
</linearGradient>
</defs>
</svg>
