<svg width="78" height="91" viewBox="0 0 78 91" fill="none" xmlns="http://www.w3.org/2000/svg">
<rect y="3" width="78" height="78" rx="39" fill="url(#paint0_linear_1890_2163)" fill-opacity="0.45"/>
<g filter="url(#filter0_d_1890_2163)">
<rect x="10" y="13" width="58" height="58" rx="29" fill="url(#paint1_linear_1890_2163)" shape-rendering="crispEdges"/>
<path d="M29.1464 41.6464C28.9512 41.8417 28.9512 42.1583 29.1464 42.3536L32.3284 45.5355C32.5237 45.7308 32.8403 45.7308 33.0355 45.5355C33.2308 45.3403 33.2308 45.0237 33.0355 44.8284L30.2071 42L33.0355 39.1716C33.2308 38.9763 33.2308 38.6597 33.0355 38.4645C32.8403 38.2692 32.5237 38.2692 32.3284 38.4645L29.1464 41.6464ZM48.5 41.5L29.5 41.5L29.5 42.5L48.5 42.5L48.5 41.5Z" fill="#15223D"/>
<g filter="url(#filter1_f_1890_2163)">
<rect x="27" y="17" width="24" height="17" rx="8.5" fill="white"/>
</g>
<g filter="url(#filter2_f_1890_2163)">
<rect x="26" y="51" width="26" height="16" rx="8" fill="#E3E5F4"/>
</g>
<rect x="10.5" y="13.5" width="57" height="57" rx="28.5" stroke="url(#paint2_linear_1890_2163)" style="mix-blend-mode:overlay" shape-rendering="crispEdges"/>
</g>
<defs>
<filter id="filter0_d_1890_2163" x="2" y="6" width="74" height="74" filterUnits="userSpaceOnUse" color-interpolation-filters="sRGB">
<feFlood flood-opacity="0" result="BackgroundImageFix"/>
<feColorMatrix in="SourceAlpha" type="matrix" values="0 0 0 0 0 0 0 0 0 0 0 0 0 0 0 0 0 0 127 0" result="hardAlpha"/>
<feOffset dy="1"/>
<feGaussianBlur stdDeviation="4"/>
<feComposite in2="hardAlpha" operator="out"/>
<feColorMatrix type="matrix" values="0 0 0 0 0.72549 0 0 0 0 0.72549 0 0 0 0 0.827451 0 0 0 0.41 0"/>
<feBlend mode="normal" in2="BackgroundImageFix" result="effect1_dropShadow_1890_2163"/>
<feBlend mode="normal" in="SourceGraphic" in2="effect1_dropShadow_1890_2163" result="shape"/>
</filter>
<filter id="filter1_f_1890_2163" x="10" y="0" width="58" height="51" filterUnits="userSpaceOnUse" color-interpolation-filters="sRGB">
<feFlood flood-opacity="0" result="BackgroundImageFix"/>
<feBlend mode="normal" in="SourceGraphic" in2="BackgroundImageFix" result="shape"/>
<feGaussianBlur stdDeviation="8.5" result="effect1_foregroundBlur_1890_2163"/>
</filter>
<filter id="filter2_f_1890_2163" x="2" y="27" width="74" height="64" filterUnits="userSpaceOnUse" color-interpolation-filters="sRGB">
<feFlood flood-opacity="0" result="BackgroundImageFix"/>
<feBlend mode="normal" in="SourceGraphic" in2="BackgroundImageFix" result="shape"/>
<feGaussianBlur stdDeviation="12" result="effect1_foregroundBlur_1890_2163"/>
</filter>
<linearGradient id="paint0_linear_1890_2163" x1="37.8026" y1="3" x2="37.8026" y2="81" gradientUnits="userSpaceOnUse">
<stop stop-color="#E1E4F7"/>
<stop offset="1" stop-color="#F7F8FF"/>
</linearGradient>
<linearGradient id="paint1_linear_1890_2163" x1="26.0263" y1="13" x2="69.689" y2="17.2663" gradientUnits="userSpaceOnUse">
<stop stop-color="#F3F5FF"/>
<stop offset="1" stop-color="white"/>
</linearGradient>
<linearGradient id="paint2_linear_1890_2163" x1="38.7456" y1="12.5" x2="67.6974" y2="51.6681" gradientUnits="userSpaceOnUse">
<stop stop-color="white"/>
<stop offset="1"/>
</linearGradient>
</defs>
</svg>
