<svg width="65" height="80" viewBox="0 0 65 80" fill="none" xmlns="http://www.w3.org/2000/svg">
    <path d="M0 13C0 5.8203 5.8203 0 13 0H52C59.1797 0 65 5.8203 65 13V52C65 59.1797 59.1797 65 52 65H13C5.8203 65 0 59.1797 0 52V13Z" fill="#15223D"/>
    <path d="M20.2402 30.1233C18.374 29.4103 17.2077 28.6973 16.5079 27.9843C15.8081 27.2713 15.5749 26.3206 15.5749 25.3699C15.5749 24.1815 16.0414 22.9932 16.7412 22.2802C17.441 21.5672 18.6073 21.0918 19.7736 21.0918C20.94 21.0918 21.873 21.3295 22.8061 22.0425C23.7391 22.7555 24.2056 23.7062 24.6722 24.8946L26.3051 23.7062C25.6053 22.2802 24.6722 21.0918 23.5058 20.3788C22.1063 19.6658 20.7067 19.1905 18.8406 19.1905C16.5079 19.1905 14.6418 19.9035 13.2422 21.3295C11.8426 22.7555 11.1429 24.6569 11.1429 26.7959C11.1429 28.4596 11.6094 29.8856 12.3092 30.8363C13.2422 32.0247 14.6418 32.9753 16.7412 33.6884C20.4734 35.352 22.3395 37.2534 22.3395 39.3924C22.3395 40.8185 21.873 41.7691 21.1732 42.7198C20.2401 43.6705 19.3071 43.9082 17.9075 43.9082C16.9745 43.9082 16.0414 43.6705 15.1083 42.9575C14.1753 42.2445 13.4755 41.5315 13.0089 40.3431L11.1429 41.7691C12.0759 43.1952 13.2422 44.1458 14.4085 44.8588C15.5749 45.5719 17.2077 45.8095 18.8406 45.8095C21.1732 45.8095 23.2726 45.0965 24.9054 43.4328C26.5383 42.0068 27.2381 40.1054 27.2381 37.7287C27.2381 36.065 26.7716 34.639 25.8385 33.4507C24.9054 32.5 23.0393 31.3116 20.2402 30.1233Z" fill="white"/>
    <path d="M48.4663 42.5405C47.0347 43.4745 45.6032 43.9415 43.9331 43.9415C41.3086 43.9415 39.3998 43.0075 37.7297 41.1395C36.2981 39.2715 35.5824 36.4695 35.5824 32.967C35.5824 29.231 36.2981 26.429 37.9683 24.3275C39.3998 22.226 41.5471 21.0585 44.1716 21.0585C45.8418 21.0585 47.0347 21.5255 48.2277 22.226C49.4206 22.9265 50.375 24.094 51.0908 25.7285L52.7609 24.561C51.8065 22.9265 50.375 21.5255 48.7049 20.5915C47.0347 19.6575 45.126 19.1905 42.9787 19.1905C39.3998 19.1905 36.2981 20.358 33.9122 22.9265C31.5263 25.495 30.3333 28.5305 30.3333 32.5C30.3333 36.4695 31.5263 39.505 33.9122 42.0735C36.2981 44.642 39.1612 45.8095 42.7401 45.8095C45.126 45.8095 47.2733 45.3425 48.9435 44.175C50.8522 43.0075 52.0451 41.373 53.2381 39.2715L51.5679 38.3375C51.0907 40.2055 49.8978 41.6065 48.4663 42.5405Z" fill="white"/>
    <path d="M33 80L22.6077 62H43.3923L33 80Z" fill="#15223D"/>
</svg>
