<svg width="24" height="25" viewBox="0 0 24 25" fill="none" xmlns="http://www.w3.org/2000/svg">
<path d="M15 12.5H17C17 11.1739 16.4732 9.90215 15.5355 8.96447C14.5979 8.02678 13.3261 7.5 12 7.5V9.5C12.7956 9.5 13.5587 9.81607 14.1213 10.3787C14.6839 10.9413 15 11.7044 15 12.5ZM19 12.5H21C21 7.5 16.97 3.5 12 3.5V5.5C15.86 5.5 19 8.63 19 12.5ZM20 16C18.75 16 17.55 15.8 16.43 15.43C16.08 15.32 15.69 15.4 15.41 15.68L13.21 17.88C10.3733 16.4333 8.06671 14.1267 6.62 11.29L8.82 9.09C9.1 8.81 9.18 8.42 9.07 8.07C8.69065 6.91806 8.49821 5.7128 8.5 4.5C8.5 4.23478 8.39464 3.98043 8.20711 3.79289C8.01957 3.60536 7.76522 3.5 7.5 3.5H4C3.73478 3.5 3.48043 3.60536 3.29289 3.79289C3.10536 3.98043 3 4.23478 3 4.5C3 9.00868 4.79107 13.3327 7.97918 16.5208C11.1673 19.7089 15.4913 21.5 20 21.5C20.2652 21.5 20.5196 21.3946 20.7071 21.2071C20.8946 21.0196 21 20.7652 21 20.5V17C21 16.7348 20.8946 16.4804 20.7071 16.2929C20.5196 16.1054 20.2652 16 20 16Z" fill="#A9B3C0"/>
</svg>
