<svg width="383" height="112" viewBox="0 0 383 112" fill="none" xmlns="http://www.w3.org/2000/svg">
<g clip-path="url(#clip0_1853_2973)">
<path d="M230.003 36.9121C226.427 34.2938 222.852 32.3301 218.627 31.021C214.726 29.7119 210.501 29.0573 206.275 29.0573C201.075 29.0573 195.874 30.0392 190.999 32.0029C186.123 33.9666 181.898 36.9121 177.998 40.8395C174.097 44.7669 171.172 49.0216 169.222 53.9308C167.272 58.84 166.297 64.4038 166.297 70.2949C166.297 76.186 167.272 81.4225 169.222 86.6591C171.172 91.5683 174.097 96.1503 177.998 100.078C181.898 104.005 186.123 106.951 190.999 108.914C195.874 110.878 201.075 111.86 206.275 111.86C211.801 111.86 216.676 110.878 221.552 108.914C226.427 106.951 230.653 104.005 234.553 100.078C238.453 96.1503 241.379 91.8956 243.329 86.9863C245.279 82.0771 246.254 76.5133 246.254 70.6222C246.254 63.7493 244.954 57.5309 242.029 51.6398C239.104 45.7487 235.203 40.8395 230.003 36.9121ZM223.827 96.4775C219.277 103.023 213.426 106.623 206.275 106.623C199.125 106.623 193.274 103.35 188.724 96.4775C184.173 89.9319 181.898 81.0953 181.898 70.2949C181.898 59.4946 184.173 50.658 188.724 44.1123C193.274 37.5667 199.125 33.9666 206.275 33.9666C213.426 33.9666 219.277 37.2394 223.827 44.1123C228.377 50.658 230.653 59.4946 230.653 70.2949C230.653 81.0953 228.377 89.9319 223.827 96.4775Z" fill="#DCE0E6"/>
<path d="M129.244 84.695L108.442 31.0206H93.1653L105.842 62.4398L97.0657 85.3496L75.9387 31.0206H60.6623L93.1653 111.532L109.092 69.64L125.668 111.532L156.546 31.0206H149.071L129.244 84.695Z" fill="#DCE0E6"/>
<path d="M324.262 84.695L303.135 31.0206H288.184L300.86 62.4398L292.084 85.3496L270.957 31.0206H255.68L288.184 111.532L303.785 69.64L320.362 111.532L351.564 31.0206H344.089L324.262 84.695Z" fill="#DCE0E6"/>
<path fill-rule="evenodd" clip-rule="evenodd" d="M374.316 93.8593L369.765 44.1123C369.603 43.4577 369.522 42.8032 369.44 42.1486C369.359 41.494 369.278 40.8395 369.115 40.1849V37.2394C369.115 34.6211 369.766 32.3301 370.741 31.021C371.716 29.7119 373.341 29.0573 375.616 29.0573C377.891 29.0573 379.191 30.0392 380.492 31.3483C381.467 32.6574 382.117 34.6211 382.117 37.2394C382.117 37.493 382.068 37.7957 382.008 38.1666C381.914 38.753 381.792 39.5098 381.792 40.5122C381.792 41.2138 381.698 41.9153 381.612 42.5665C381.537 43.1305 381.467 43.6566 381.467 44.1123L376.916 93.8593H374.316ZM375.941 97.7881C377.891 97.7881 379.517 98.4427 380.817 99.7518C382.117 101.061 382.767 102.697 382.767 104.661C382.767 106.625 382.117 108.261 380.817 109.57C379.517 110.879 377.891 111.534 375.941 111.534C373.991 111.534 372.366 110.879 371.066 109.57C369.766 108.261 369.115 106.625 369.115 104.661C369.115 102.697 369.766 101.061 371.066 99.7518C372.366 98.4427 373.991 97.7881 375.941 97.7881Z" fill="#DCE0E6"/>
<path fill-rule="evenodd" clip-rule="evenodd" d="M6.64672 6.22037L1.66168 6.22037L1.66168 0.973373L11.2483 0.973373L11.2483 -0.338376L-8.45331e-07 -0.338375L-1.57271e-07 15.4026L6.26325 15.4026C8.18058 15.4026 9.58661 15.0091 10.6092 14.222C11.6318 13.435 12.143 12.2544 12.143 10.6803C12.143 9.23739 11.6318 8.05682 10.737 7.40094C9.84225 6.61389 8.43622 6.22037 6.64672 6.22037ZM9.45879 13.1726C8.69186 13.6973 7.66929 13.9597 6.26325 13.9597L1.66168 13.9597L1.66168 7.40094L6.26325 7.40094C7.66929 7.40094 8.81968 7.66329 9.45879 8.18799C10.2257 8.71269 10.4814 9.49974 10.4814 10.5491C10.6092 11.8609 10.2257 12.6479 9.45879 13.1726ZM24.9604 10.3238L19.3948 -0.338376L17.5396 -0.338376L24.0328 11.9034L23.6353 12.6932C22.9727 13.8779 22.0451 14.4044 21.1175 14.4044C20.72 14.4044 20.1899 14.2728 19.6599 14.1411L19.6599 14.1411L19.1298 15.4575C19.7924 15.7207 20.4549 15.8523 21.1175 15.8523C21.9126 15.8523 22.7077 15.5891 23.3702 15.1942C24.0328 14.7993 24.6954 14.0095 25.2254 13.0881L32.3811 -0.338377L30.6585 -0.338376L24.9604 10.3238ZM40.5189 -0.338375L50.6852 -0.338375L50.8107 -0.338375L50.8107 14.0014L53.0698 14.0014L53.0698 19.0005L51.5637 19.0005L51.5637 15.4485L38.3852 15.4485L38.3852 19.0005L36.8791 19.0005L36.8791 14.0014L37.6322 14.0014C38.5107 13.8698 39.2638 13.0805 39.6403 11.5018C40.0169 9.92309 40.2679 7.68662 40.3934 4.79236L40.5189 -0.338375ZM39.8913 14.0014L49.179 14.0014L49.179 1.10875L41.8995 1.10876L41.774 4.92392C41.774 7.29195 41.523 9.26531 41.2719 10.844C41.0209 12.4227 40.5189 13.4751 39.8913 14.0014ZM62.4349 8.05682L70.6361 8.05682L70.6361 6.61389L62.4349 6.61389L62.4349 1.10455L71.6943 1.10455L71.6943 -0.338376L60.7153 -0.338376L60.7153 15.4026L71.9589 15.4026L71.9589 13.9597L62.4349 13.9597L62.4349 8.05682ZM83.0631 1.10455L77.8053 1.10455L77.8053 -0.338375L89.9483 -0.338375L89.9483 1.10455L84.5653 1.10455L84.5653 15.4026L83.0631 15.4026L83.0631 1.10455Z" fill="#DCE0E6"/>
</g>
<defs>
<clipPath id="clip0_1853_2973">
<rect width="383" height="112" fill="white"/>
</clipPath>
</defs>
</svg>
