<svg width="50" height="55" viewBox="0 0 50 55" fill="none" xmlns="http://www.w3.org/2000/svg">
<rect y="2" width="50" height="50" rx="25" fill="url(#paint0_linear_1948_2164)" fill-opacity="0.45"/>
<g filter="url(#filter0_d_1948_2164)">
<rect x="6.41016" y="8.41016" width="37.1795" height="37.1795" rx="18.5897" fill="url(#paint1_linear_1948_2164)" shape-rendering="crispEdges"/>
<path fill-rule="evenodd" clip-rule="evenodd" d="M23 22C23 21.4477 23.4477 21 24 21H32C32.5523 21 33 21.4477 33 22C33 22.5523 32.5523 23 32 23H24C23.4477 23 23 22.5523 23 22ZM17 27C17 26.4477 17.4477 26 18 26H32C32.5523 26 33 26.4477 33 27C33 27.5523 32.5523 28 32 28H18C17.4477 28 17 27.5523 17 27ZM23 32C23 31.4477 23.4477 31 24 31H32C32.5523 31 33 31.4477 33 32C33 32.5523 32.5523 33 32 33H24C23.4477 33 23 32.5523 23 32Z" fill="#15223D"/>
<g filter="url(#filter1_f_1948_2164)">
<rect x="16.4358" y="10.7695" width="13.5641" height="10.0256" rx="5.01282" fill="white"/>
</g>
<g filter="url(#filter2_f_1948_2164)">
<rect x="15.8459" y="30.8203" width="14.7436" height="9.4359" rx="4.71795" fill="#E3E5F4"/>
</g>
<rect x="6.70503" y="8.70503" width="36.5897" height="36.5897" rx="18.2949" stroke="url(#paint2_linear_1948_2164)" stroke-width="0.589744" style="mix-blend-mode:overlay" shape-rendering="crispEdges"/>
</g>
<defs>
<filter id="filter0_d_1948_2164" x="1.69221" y="4.28195" width="46.6153" height="46.6156" filterUnits="userSpaceOnUse" color-interpolation-filters="sRGB">
<feFlood flood-opacity="0" result="BackgroundImageFix"/>
<feColorMatrix in="SourceAlpha" type="matrix" values="0 0 0 0 0 0 0 0 0 0 0 0 0 0 0 0 0 0 127 0" result="hardAlpha"/>
<feOffset dy="0.589744"/>
<feGaussianBlur stdDeviation="2.35897"/>
<feComposite in2="hardAlpha" operator="out"/>
<feColorMatrix type="matrix" values="0 0 0 0 0.72549 0 0 0 0 0.72549 0 0 0 0 0.827451 0 0 0 0.41 0"/>
<feBlend mode="normal" in2="BackgroundImageFix" result="effect1_dropShadow_1948_2164"/>
<feBlend mode="normal" in="SourceGraphic" in2="effect1_dropShadow_1948_2164" result="shape"/>
</filter>
<filter id="filter1_f_1948_2164" x="6.41015" y="0.74389" width="33.6155" height="30.0767" filterUnits="userSpaceOnUse" color-interpolation-filters="sRGB">
<feFlood flood-opacity="0" result="BackgroundImageFix"/>
<feBlend mode="normal" in="SourceGraphic" in2="BackgroundImageFix" result="shape"/>
<feGaussianBlur stdDeviation="5.01282" result="effect1_foregroundBlur_1948_2164"/>
</filter>
<filter id="filter2_f_1948_2164" x="1.6921" y="16.6665" width="43.0513" height="37.7432" filterUnits="userSpaceOnUse" color-interpolation-filters="sRGB">
<feFlood flood-opacity="0" result="BackgroundImageFix"/>
<feBlend mode="normal" in="SourceGraphic" in2="BackgroundImageFix" result="shape"/>
<feGaussianBlur stdDeviation="7.07692" result="effect1_foregroundBlur_1948_2164"/>
</filter>
<linearGradient id="paint0_linear_1948_2164" x1="24.2325" y1="2" x2="24.2325" y2="52" gradientUnits="userSpaceOnUse">
<stop stop-color="#E1E4F7"/>
<stop offset="1" stop-color="#F7F8FF"/>
</linearGradient>
<linearGradient id="paint1_linear_1948_2164" x1="16.6834" y1="8.41015" x2="44.6723" y2="11.145" gradientUnits="userSpaceOnUse">
<stop stop-color="#F3F5FF"/>
<stop offset="1" stop-color="white"/>
</linearGradient>
<linearGradient id="paint2_linear_1948_2164" x1="24.8368" y1="8.08965" x2="43.3957" y2="33.1974" gradientUnits="userSpaceOnUse">
<stop stop-color="white"/>
<stop offset="1"/>
</linearGradient>
</defs>
</svg>
