<svg width="332" height="27" viewBox="0 0 332 27" fill="none" xmlns="http://www.w3.org/2000/svg">
<path d="M74.9025 26.1204H72.6785L83.2999 0.0398176L94.3661 26.1204H89.2037L86.5079 19.3115H77.5579L74.9025 26.1204ZM82.0868 8.34843L78.2992 17.6658H85.9283L82.0868 8.34843ZM5.82291 8.93242C6.48337 9.58278 7.73692 10.3526 9.50266 11.1224C12.4006 12.3169 14.3146 13.5513 15.2043 14.6263C16.1073 15.7014 16.5387 17.1614 16.5387 18.9001C16.5387 21.2095 15.6356 23.0544 14.072 24.594C12.3872 26.0142 10.3923 26.784 7.9391 26.784C6.1464 26.784 4.69067 26.4389 3.36974 25.7885C2.15663 25.0055 1.01092 24.01 0 22.5899L1.99488 21.2759C2.65535 22.351 3.3293 23.2402 4.21891 23.8109C5.122 24.3551 6.13292 24.7002 7.11689 24.7002C8.4513 24.7002 9.58353 24.2755 10.4731 23.3862C11.3762 22.497 11.8076 21.4219 11.8076 20.1212C11.8076 17.9312 9.89355 16.0863 5.98465 14.5467H5.86334C3.78758 13.6176 2.34534 12.7416 1.44225 11.6666C0.552637 10.5782 0.121311 9.23769 0.121311 7.61844C0.121311 5.42847 0.90309 3.54377 2.34534 2.11033C3.78758 0.690172 5.7016 0.0265451 8.16824 0.0265451C9.96094 0.0265451 11.5245 0.451266 12.7376 1.22107C14.072 2.11033 15.0829 3.18541 15.7434 4.60557L14.0585 5.72047C13.6272 4.52594 13.0476 3.63668 12.1445 2.98632C11.3762 2.34924 10.3653 2.00415 9.15221 2.00415C7.81779 2.00415 6.80687 2.34924 6.02509 3.19868C5.24331 3.96849 4.81198 4.96393 4.81198 6.27791C4.81198 7.27335 5.16244 8.16261 5.82291 8.93242ZM38.2263 22.2713C39.0081 21.0768 39.4394 19.0063 39.4394 16.0332H39.5607V0.570719H41.9061V16.8827C41.9061 20.1477 41.2456 22.696 39.682 24.3418C38.1185 26.0009 35.7731 26.8769 32.7673 26.8769C31.4329 26.8769 30.0715 26.5318 28.8584 26.1071C27.524 25.6824 26.5131 25.032 25.7313 24.1428C24.9495 23.2535 24.3969 22.3775 24.0464 21.2892C23.696 20.2141 23.4938 18.7541 23.4938 16.9092V0.690172H28.3058V16.0465C28.3058 19.0063 28.6562 21.0901 29.5189 22.2846C30.422 23.4791 31.8642 24.0498 33.8996 24.0498C35.881 24.0498 37.3367 23.5057 38.2263 22.2713ZM67.3139 14.9316C66.4108 13.8565 65.0898 12.9673 63.2837 12.5027C64.7259 12.1576 65.8581 11.5073 66.6399 10.5384C67.4217 9.54296 67.7722 8.45461 67.7722 7.03445C67.7722 5.83992 67.4217 4.72502 66.8691 3.7694C66.3164 2.77396 65.4268 2.00415 64.4024 1.45998C63.8498 1.11489 62.9602 0.915805 61.9358 0.809625C60.8035 0.690172 59.4691 0.583992 57.9056 0.583992H50.2091V26.1336H59.4017C62.5288 26.1336 64.8742 25.5895 66.4377 24.4746C68.0013 23.3995 68.6618 21.621 68.6618 19.3248C68.7561 17.5861 68.3383 16.166 67.3139 14.9316ZM55.1154 2.22979H57.0294C59.1456 2.22979 60.7092 2.65451 61.7201 3.42432C62.731 4.19412 63.2837 5.38865 63.2837 7.03445C63.2837 8.7997 62.8523 9.99422 61.9492 10.764C61.0462 11.5338 59.6039 11.9586 57.4877 11.9586H55.1424V2.22979H55.1154ZM62.6232 23.28C61.7201 24.0498 60.1566 24.4746 58.1617 24.4746H55.1154V13.5114H57.4608C59.6848 13.5114 61.3697 14.0556 62.5019 15.0511C63.6341 16.0465 64.1868 17.5861 64.1868 19.6699C64.0654 21.3157 63.6476 22.5102 62.6232 23.28ZM116.175 12.4231C117.307 11.348 117.968 9.88804 117.968 8.04316C117.968 5.61428 117.186 3.7694 115.501 2.46869C113.816 1.27416 111.363 0.623809 108.115 0.623809H99.6364V26.1735H104.448V2.22979H106.443C108.667 2.22979 110.352 2.65451 111.484 3.64995C112.617 4.53921 113.169 5.95937 113.169 7.92371C113.169 9.68896 112.617 10.8835 111.484 11.7727C110.352 12.5426 108.479 13.0867 105.661 13.3124L112.576 26.2398H117.927L111.013 14.268C113.371 14.0822 115.043 13.392 116.175 12.4231ZM141.003 26.1204H124.896V0.570719H141.003V2.4156H129.708V11.8391H140.1V13.684H129.708V24.1162H141.003V26.1204ZM156.76 18.0108L149.845 0.583992H144.804L155.561 26.784L165.845 0.583992H163.378L156.76 18.0108ZM168.527 26.1204H166.182L176.898 0.0398176L187.964 26.1204H182.801L180.106 19.3115H171.156L168.527 26.1204ZM175.685 8.34843L171.897 17.6658H179.526L175.685 8.34843ZM226.419 19.1257C225.516 20.9706 224.425 22.3244 223.063 23.28C221.729 24.2755 220.165 24.7002 218.372 24.7002C215.798 24.7002 213.682 23.7048 212.24 21.7404C210.797 19.7761 210.123 17.0419 210.123 13.5114C210.123 9.90132 210.905 6.92827 212.347 4.85775C213.911 2.77396 215.946 1.65907 218.48 1.65907C220.044 1.65907 221.378 2.08379 222.618 2.8536C223.831 3.6234 224.842 4.81793 225.624 6.35755L227.188 5.28247C226.177 3.51722 224.842 2.20324 223.157 1.31398C221.607 0.424721 219.693 0 217.469 0C213.87 0 210.865 1.31398 208.398 3.84904C205.931 6.38409 204.799 9.54296 204.799 13.392C204.799 17.3605 206.012 20.5061 208.398 23.0544C210.743 25.5895 213.749 26.784 217.348 26.784C219.693 26.784 221.81 26.2398 223.602 25.0187C225.395 23.8242 226.851 22.1651 227.862 20.0946L226.419 19.1257ZM238.847 24.1693H250.021V26.1336H233.914V0.570719H238.833V24.1693H238.847ZM259.888 0.570719H255.076V26.1204H259.888V0.570719ZM272.935 0.570719L286.347 18.2365V0.570719H288.692V26.1204H286.347L270.792 5.73374V26.1204H268.447V0.570719H272.935ZM302.265 0.570719H297.453V26.1204H302.265V0.570719ZM327.201 23.28C328.536 22.2846 329.668 20.9706 330.558 19.1257L332 20.1212C330.989 22.205 329.533 23.8508 327.741 25.0453C325.948 26.2398 323.832 26.8105 321.486 26.8105C317.888 26.8105 314.882 25.616 312.536 23.0809C310.191 20.5459 308.938 17.387 308.938 13.4185C308.938 9.5695 310.07 6.41064 312.536 3.87558C315.003 1.34053 318.009 0.0265451 321.608 0.0265451C323.832 0.0265451 325.746 0.451266 327.309 1.34053C328.994 2.22979 330.315 3.5305 331.34 5.30902L329.776 6.38409C328.994 4.84448 327.983 3.64995 326.77 2.88014C325.557 2.11033 324.196 1.68561 322.632 1.68561C320.058 1.68561 318.063 2.76069 316.499 4.8843C315.057 6.96808 314.275 9.92786 314.275 13.538C314.275 17.0419 314.936 19.7761 316.391 21.767C317.834 23.7313 319.99 24.7267 322.524 24.7267C324.263 24.7002 325.827 24.2357 327.201 23.28Z" fill="#25303B"/>
</svg>
