<svg width="92" height="92" viewBox="0 0 92 92" fill="none" xmlns="http://www.w3.org/2000/svg">
<g filter="url(#filter0_d_1853_2490)">
<circle cx="46" cy="36" r="29" stroke="#B9B9D3" stroke-width="2" shape-rendering="crispEdges"/>
</g>
<path d="M57.5654 23.1304H35.3046C33.77 23.1304 32.522 24.3742 32.522 25.9019V42.6212C32.522 44.1474 33.77 45.3912 35.3046 45.3912H39.4785V50.9565L48.3147 45.3912H57.5654C59.1001 45.3912 60.3481 44.1474 60.3481 42.6198V25.9019C60.3458 25.1656 60.0516 24.4602 59.5299 23.9406C59.0083 23.421 58.3017 23.1296 57.5654 23.1304ZM45.0437 34.2608C45.0437 34.8112 44.8805 35.3491 44.5748 35.8067C44.269 36.2643 43.8344 36.621 43.326 36.8316C42.8175 37.0422 42.258 37.0973 41.7182 36.9899C41.1785 36.8826 40.6827 36.6176 40.2935 36.2284C39.9043 35.8393 39.6393 35.3434 39.532 34.8037C39.4246 34.2639 39.4797 33.7044 39.6903 33.1959C39.9009 32.6875 40.2576 32.2529 40.7152 31.9472C41.1728 31.6414 41.7108 31.4782 42.2611 31.4782C42.3808 31.4782 42.4935 31.4991 42.6089 31.513C42.723 31.4935 42.8371 31.4782 42.9568 31.4782C43.5103 31.4782 44.0411 31.6981 44.4325 32.0895C44.8238 32.4808 45.0437 33.0117 45.0437 33.5652C45.0437 33.6848 45.027 33.7989 45.0089 33.913C45.0228 34.0285 45.0437 34.1425 45.0437 34.2608ZM50.6089 37.0434C49.8709 37.0434 49.1632 36.7502 48.6413 36.2284C48.1195 35.7066 47.8263 34.9988 47.8263 34.2608C47.8263 34.1412 47.8472 34.0285 47.8611 33.913C47.8404 33.7981 47.8287 33.6818 47.8263 33.5652C47.8263 33.0117 48.0462 32.4808 48.4376 32.0895C48.829 31.6981 49.3598 31.4782 49.9133 31.4782C50.0329 31.4782 50.147 31.4935 50.2611 31.513C50.3766 31.4991 50.4893 31.4782 50.6089 31.4782C51.3469 31.4782 52.0547 31.7714 52.5765 32.2932C53.0984 32.815 53.3915 33.5228 53.3915 34.2608C53.3915 34.9988 53.0984 35.7066 52.5765 36.2284C52.0547 36.7502 51.3469 37.0434 50.6089 37.0434Z" fill="#B9B9D3"/>
<defs>
<filter id="filter0_d_1853_2490" x="0" y="0" width="92" height="92" filterUnits="userSpaceOnUse" color-interpolation-filters="sRGB">
<feFlood flood-opacity="0" result="BackgroundImageFix"/>
<feColorMatrix in="SourceAlpha" type="matrix" values="0 0 0 0 0 0 0 0 0 0 0 0 0 0 0 0 0 0 127 0" result="hardAlpha"/>
<feMorphology radius="7" operator="erode" in="SourceAlpha" result="effect1_dropShadow_1853_2490"/>
<feOffset dy="10"/>
<feGaussianBlur stdDeviation="11.5"/>
<feComposite in2="hardAlpha" operator="out"/>
<feColorMatrix type="matrix" values="0 0 0 0 0.901961 0 0 0 0 0.227451 0 0 0 0 0.929412 0 0 0 1 0"/>
<feBlend mode="normal" in2="BackgroundImageFix" result="effect1_dropShadow_1853_2490"/>
<feBlend mode="normal" in="SourceGraphic" in2="effect1_dropShadow_1853_2490" result="shape"/>
</filter>
</defs>
</svg>
