<svg width="24" height="24" viewBox="0 0 24 24" fill="none" xmlns="http://www.w3.org/2000/svg">
<g opacity="0.5">
<path fill-rule="evenodd" clip-rule="evenodd" d="M4.92969 4.92891C6.80312 3.05422 9.34844 2 12 2C14.6516 2 17.1969 3.05422 19.0703 4.92891C20.9453 6.80359 22 9.34891 22 12C22 14.6511 20.9453 17.1964 19.0703 19.0711C17.1969 20.9458 14.6516 22 12 22C9.34844 22 6.80312 20.9458 4.92969 19.0711C3.05469 17.1964 2 14.6511 2 12C2.00052 9.34778 3.05432 6.80434 4.92969 4.92891ZM12.3578 9.3825C11.3859 9.78703 9.44218 10.6244 6.52656 11.8944C6.05312 12.0827 5.80468 12.2669 5.78281 12.4469C5.74433 12.751 6.12515 12.8709 6.6426 13.0338C6.71357 13.0562 6.78711 13.0794 6.8625 13.1039C7.37343 13.2698 8.06093 13.4641 8.41718 13.4717C8.74218 13.4788 9.10312 13.3452 9.50156 13.0711C12.2266 11.2325 13.6312 10.3031 13.7203 10.2831C13.7828 10.2691 13.8687 10.2513 13.9266 10.3033C13.9859 10.3552 13.9797 10.4536 13.9734 10.48C13.9366 10.6406 12.4463 12.0262 11.6708 12.7472C11.427 12.9738 11.2539 13.1348 11.2187 13.1714C11.1403 13.253 11.0602 13.3301 10.9833 13.4042C10.5092 13.8613 10.1534 14.2042 11.0031 14.7641C11.4151 15.0354 11.744 15.2594 12.0726 15.4833C12.4258 15.7239 12.7787 15.9643 13.2344 16.2631C13.3515 16.3399 13.4634 16.4197 13.5724 16.4974C13.9865 16.7926 14.3586 17.0578 14.8187 17.0155C15.0859 16.9909 15.3625 16.7397 15.5016 15.9903C15.8328 14.2192 16.4844 10.382 16.6344 8.80078C16.6484 8.66235 16.6312 8.485 16.6187 8.40719C16.6047 8.3293 16.5766 8.21836 16.4766 8.13633C16.3562 8.03907 16.1719 8.0186 16.0891 8.01992C15.7125 8.02672 15.1359 8.22735 12.3578 9.3825Z" fill="#B9B9D3"/>
</g>
</svg>
