<svg width="24" height="24" viewBox="0 0 24 24" fill="none" xmlns="http://www.w3.org/2000/svg">
<g opacity="0.5">
<path fill-rule="evenodd" clip-rule="evenodd" d="M6 2C3.79086 2 2 3.79086 2 6V18C2 20.2091 3.79086 22 6 22H18C20.2091 22 22 20.2091 22 18V6C22 3.79086 20.2091 2 18 2H6ZM16.2331 7.83369C16.3212 7.89173 16.4122 7.94526 16.5056 7.9941C17.1136 8.30063 17.7075 8.39396 18 8.36187V10.7488C18 10.7488 17.1653 10.7138 16.5457 10.5475C15.6822 10.3139 15.1286 9.95517 15.1286 9.95517C15.1286 9.95517 14.7445 9.69822 14.7156 9.68072V14.6131C14.7156 14.8873 14.6438 15.5733 14.4286 16.1452C14.24 16.6343 13.9704 17.0873 13.6314 17.4848C13.6314 17.4848 13.1007 18.15 12.1685 18.5965C11.3914 18.9689 10.7002 18.9893 10.4257 18.9974C10.4032 18.998 10.3836 18.9986 10.3669 18.9993C10.3669 18.9993 9.09059 19.0512 7.93946 18.2603L7.93369 18.2544V18.2603C7.5445 17.9857 7.19744 17.6546 6.90369 17.2777C6.5394 16.8078 6.31587 16.2505 6.25818 16.0872V16.0813C6.16646 15.804 5.97407 15.1329 6.00292 14.4851C6.04878 13.3439 6.42749 12.6407 6.52786 12.4657C6.79163 11.9859 7.13619 11.5562 7.54603 11.1961C8.01377 10.7997 8.55769 10.5055 9.14348 10.3322C9.72928 10.1589 10.3442 10.1103 10.9495 10.1894L10.9467 12.6375C10.7473 12.5718 10.5388 12.5384 10.3291 12.5386C9.22125 12.5386 8.32336 13.4521 8.32336 14.5802C8.32336 15.7083 9.22125 16.6218 10.3291 16.6218C10.6741 16.6222 11.0132 16.5317 11.313 16.3593C11.6006 16.194 11.8437 15.9598 12.0209 15.6772C12.198 15.3947 12.3038 15.0724 12.3288 14.7388V14.7336C12.3303 14.7266 12.3303 14.7196 12.3303 14.7129V14.7129C12.3306 14.7076 12.3309 14.7025 12.3312 14.6976C12.3319 14.6873 12.3326 14.6776 12.3326 14.6674C12.3378 14.5455 12.3378 14.4221 12.3378 14.2973V5H14.7156C14.7119 5 14.6871 5.23041 14.7471 5.58651H14.7442C14.816 6.01553 15.011 6.62829 15.533 7.23231C15.7417 7.46042 15.9767 7.66233 16.2331 7.83369Z" fill="#B9B9D3"/>
</g>
</svg>
