<svg width="978" height="292" viewBox="0 0 978 292" fill="none" xmlns="http://www.w3.org/2000/svg">
<path d="M587.736 100.058C578.606 93.3718 569.476 88.3574 558.686 85.0144C548.726 81.6715 537.937 80 527.147 80C513.867 80 500.587 82.5072 488.137 87.5217C475.687 92.5361 464.898 100.058 454.938 110.087C444.978 120.116 437.508 130.98 432.528 143.516C427.548 156.052 425.058 170.26 425.058 185.303C425.058 200.347 427.548 213.718 432.528 227.09C437.508 239.626 444.978 251.327 454.938 261.356C464.898 271.384 475.687 278.906 488.137 283.92C500.587 288.935 513.867 291.442 527.147 291.442C541.257 291.442 553.706 288.935 566.156 283.92C578.606 278.906 589.396 271.384 599.356 261.356C609.316 251.327 616.786 240.462 621.766 227.926C626.745 215.39 629.235 201.182 629.235 186.139C629.235 168.588 625.915 152.709 618.446 137.666C610.976 122.623 601.016 110.087 587.736 100.058ZM571.966 252.162C560.346 268.877 545.407 278.07 527.147 278.07C508.887 278.07 493.947 269.713 482.327 252.162C470.708 235.448 464.898 212.883 464.898 185.303C464.898 157.724 470.708 135.159 482.327 118.444C493.947 101.729 508.887 92.5361 527.147 92.5361C545.407 92.5361 560.346 100.893 571.966 118.444C583.586 135.159 589.396 157.724 589.396 185.303C589.396 212.883 583.586 235.448 571.966 252.162Z" fill="#15223D"/>
<path d="M330.441 222.075L277.322 85.0137H238.312L270.682 165.245L248.272 223.746L194.323 85.0137H155.313L238.312 290.606L278.982 183.631L321.311 290.606L400.16 85.0137H381.07L330.441 222.075Z" fill="#15223D"/>
<path d="M828.434 222.075L774.484 85.0137H736.305L768.675 165.245L746.265 223.746L692.316 85.0137H653.306L736.305 290.606L776.145 183.631L818.474 290.606L898.153 85.0137H879.063L828.434 222.075Z" fill="#15223D"/>
<path fill-rule="evenodd" clip-rule="evenodd" d="M956.25 245.476L944.63 118.444C944.215 116.773 944.008 115.101 943.8 113.43C943.593 111.758 943.386 110.087 942.971 108.415V100.893C942.971 94.2076 944.63 88.3574 947.12 85.0144C949.61 81.6715 953.76 80 959.57 80C965.38 80 968.7 82.5072 972.02 85.8502C974.51 89.1931 976.17 94.2076 976.17 100.893C976.17 101.541 976.046 102.314 975.893 103.261C975.652 104.759 975.34 106.691 975.34 109.251C975.34 111.042 975.102 112.834 974.881 114.497C974.689 115.937 974.51 117.28 974.51 118.444L962.89 245.476H956.25ZM960.4 255.51C965.38 255.51 969.53 257.181 972.85 260.524C976.17 263.867 977.83 268.046 977.83 273.06C977.83 278.075 976.17 282.253 972.85 285.596C969.53 288.939 965.38 290.611 960.4 290.611C955.421 290.611 951.271 288.939 947.951 285.596C944.631 282.253 942.971 278.075 942.971 273.06C942.971 268.046 944.631 263.867 947.951 260.524C951.271 257.181 955.421 255.51 960.4 255.51Z" fill="#15223D"/>
<path fill-rule="evenodd" clip-rule="evenodd" d="M17.3807 16.7477L4.65108 16.7477L4.65108 3.34913L29.1312 3.34913L29.1312 -0.00051624L0.407867 -0.000514984L0.407867 40.1952L16.4015 40.1952C21.2975 40.1952 24.888 39.1903 27.4992 37.1805C30.1104 35.1707 31.416 32.1561 31.416 28.1365C31.416 24.4519 30.1104 21.4372 27.8256 19.7624C25.5408 17.7526 21.9504 16.7477 17.3807 16.7477ZM24.5616 34.5008C22.6032 35.8407 19.9919 36.5106 16.4015 36.5106L4.65108 36.5106L4.65108 19.7624L16.4015 19.7624C19.9919 19.7624 22.9296 20.4323 24.5616 21.7722C26.52 23.112 27.1728 25.1218 27.1728 27.8015C27.4992 31.1512 26.52 33.161 24.5616 34.5008ZM64.146 27.2261L49.934 -0.000513334L45.1966 -0.000513127L61.7774 31.2597L60.7622 33.2765C59.0703 36.3017 56.7016 37.6462 54.3329 37.6462C53.3178 37.6462 51.9643 37.3101 50.6108 36.974L50.6107 36.9739L49.2572 40.3353C50.9491 41.0075 52.641 41.3437 54.3329 41.3437C56.3632 41.3437 58.3935 40.6714 60.0854 39.663C61.7774 38.6546 63.4693 36.6378 64.8228 34.2849L83.0954 -0.000514784L78.6965 -0.000514592L64.146 27.2261ZM103.876 -0.000515692L129.836 -0.000516827L130.157 -0.000516841L130.157 36.6171L135.925 36.6171L135.925 49.3828L132.08 49.3828L132.08 40.3124L98.4273 40.3124L98.4273 49.3828L94.5813 49.3828L94.5813 36.6171L96.5043 36.6171C98.7478 36.2811 100.671 34.2655 101.632 30.2342C102.594 26.2029 103.235 20.4919 103.555 13.1012L103.876 -0.000515692ZM102.273 36.6171L125.99 36.6171L125.99 3.69483L107.401 3.69483L107.081 13.4371C107.081 19.4841 106.44 24.5232 105.799 28.5545C105.158 32.5858 103.876 35.2733 102.273 36.6171ZM159.84 21.4372L180.782 21.4372L180.782 17.7526L159.84 17.7526L159.84 3.68409L183.484 3.68409L183.484 -0.000515357L155.449 -0.000514132L155.449 40.1952L184.16 40.1952L184.16 36.5106L159.84 36.5106L159.84 21.4372ZM212.515 3.68409L199.089 3.68409L199.089 -0.000516039L230.097 -0.000517395L230.097 3.68409L216.351 3.68409L216.351 40.1952L212.515 40.1952L212.515 3.68409Z" fill="#15223D"/>
</svg>
